<svg xmlns="http://www.w3.org/2000/svg" viewBox="0 0 128 128" role="img" aria-label="EdgeRoom">
  <defs>
    <linearGradient id="er-grad" x1="0" y1="0" x2="1" y2="1">
      <stop offset="0%" stop-color="#0ea5e9"/>
      <stop offset="100%" stop-color="#22c55e"/>
    </linearGradient>
  </defs>
  <rect width="128" height="128" rx="24" fill="#0f1115"/>
  <rect x="12" y="12" width="104" height="104" rx="20" fill="url(#er-grad)" opacity="0.16"/>
  <path d="M40 38h48v12H54v10h30v12H54v12h34v12H40V38z" fill="#e2e8f0"/>
  <path d="M70 38h18c12 0 20 8 20 20 0 11-6 18-16 19l16 19H92L78 77h-8V38zm18 12H82v14h6c6 0 10-3 10-7 0-5-4-7-10-7z" fill="#e2e8f0"/>
</svg>
